<svg width="256" height="256" viewBox="0 0 256 256" fill="none" xmlns="http://www.w3.org/2000/svg">
<path fill-rule="evenodd" clip-rule="evenodd" d="M128 0C57.3026 0 -3.33786e-06 57.3026 -3.33786e-06 128C-3.33786e-06 198.697 57.3026 256 128 256C198.697 256 256 198.697 256 128C256 57.3026 198.697 0 128 0Z" fill="#BDC5D1"/>
<path d="M73.5023 175.962C64.3916 176.352 55.4011 173.76 47.8851 168.575C44.638 166.086 42.0441 162.839 40.3275 159.117C38.6109 155.394 37.8234 151.308 38.0332 147.212C38.0732 144.825 38.2929 142.444 38.6905 140.091C39.8292 133.751 41.4492 126.145 43.5505 117.275C49.506 93.0957 64.8752 81.0062 89.6581 81.0062C95.8698 80.9041 102.037 82.0708 107.786 84.4356C112.889 86.4434 117.279 89.9332 120.397 94.4588C123.54 99.1219 125.146 104.658 124.99 110.286C124.944 112.629 124.725 114.965 124.332 117.275C123.017 125.1 121.441 132.705 119.604 140.091C116.542 152.135 111.244 161.147 103.71 167.126C96.183 173.016 86.1139 175.962 73.5023 175.962ZM75.3424 156.97C79.8923 157.096 84.3313 155.549 87.8238 152.618C91.6836 149.104 94.3095 144.432 95.3103 139.298C97.3255 131.037 98.8565 123.827 99.9033 117.67C100.256 115.8 100.432 113.901 100.429 111.998C100.429 103.996 96.2691 99.9959 87.9501 99.9979C83.3634 99.8874 78.8893 101.431 75.3395 104.35C71.551 107.901 68.9762 112.562 67.9822 117.67C66.4053 123.56 64.8293 130.77 63.2543 139.298C62.8978 141.123 62.7219 142.978 62.729 144.837C62.729 152.926 66.9335 156.97 75.3424 156.97Z" fill="white"/>
<path d="M130.724 174.995C130.303 175.02 129.883 174.949 129.494 174.788C129.105 174.628 128.757 174.381 128.476 174.067C128.036 173.353 127.894 172.494 128.08 171.676L146.325 85.3686C146.486 84.4163 147.003 83.5614 147.77 82.9778C148.478 82.3906 149.365 82.0632 150.283 82.0493H185.453C193.733 81.6413 201.941 83.7714 208.988 88.1569C211.885 90.0628 214.238 92.6938 215.815 95.7907C217.391 98.8876 218.137 102.344 217.979 105.818C217.967 108.142 217.7 110.458 217.185 112.724C215.727 121.67 210.957 129.733 203.831 135.297C197.221 140.166 188.142 142.6 176.595 142.6H158.748L152.667 171.679C152.505 172.631 151.988 173.486 151.222 174.07C150.514 174.656 149.629 174.984 148.711 174.998L130.724 174.995ZM177.528 124.272C180.992 124.348 184.385 123.275 187.181 121.219C190.057 119.098 192.038 115.972 192.734 112.457C192.979 111.143 193.112 109.81 193.129 108.473C193.205 107.393 193.042 106.31 192.654 105.3C192.265 104.29 191.66 103.378 190.882 102.63C188.675 100.993 185.943 100.236 183.214 100.506H167.349L162.325 124.272H177.528Z" fill="white"/>
</svg>
